<svg width="284" height="64" viewBox="0 0 284 64" fill="none" xmlns="http://www.w3.org/2000/svg">
<path d="M100.671 48.0228L93.8764 36.3958H84.7764V48.0258H78.0684V16.9258H93.3564C102.039 16.9258 106.38 20.1634 106.38 26.6388C106.449 28.4905 105.939 30.3176 104.92 31.8658C103.792 33.3762 102.237 34.5141 100.456 35.1328L108.296 48.0258L100.671 48.0228ZM92.8314 31.0348C94.5894 31.1586 96.347 30.789 97.9064 29.9678C98.4518 29.5988 98.8901 29.0922 99.1769 28.4994C99.4636 27.9066 99.5887 27.2485 99.5394 26.5918C99.5954 25.9527 99.4819 25.3102 99.2103 24.7291C98.9386 24.1479 98.5185 23.6487 97.9924 23.2818C96.4229 22.4948 94.6691 22.1492 92.9184 22.2818H84.7734V31.0358L92.8314 31.0348Z" fill="white"/>
<path d="M113.495 38.2242C113.505 39.2964 113.831 40.342 114.431 41.2302C115.057 42.1264 115.915 42.8343 116.914 43.2772C118.072 43.7917 119.329 44.0447 120.595 44.0182C123.995 44.0182 126.101 42.9872 126.911 40.9252H132.965C132.735 42.1299 132.258 43.274 131.564 44.286C130.871 45.2979 129.976 46.1559 128.936 46.8062C126.86 48.0836 124.007 48.7222 120.377 48.7222C116.253 48.7222 113.053 47.6912 110.777 45.6292C108.501 43.5672 107.361 40.6782 107.357 36.9622C107.319 34.7323 107.867 32.5314 108.947 30.5802C110.013 28.7012 111.602 27.1725 113.521 26.1802C115.684 25.0795 118.086 24.5332 120.512 24.5902C124.579 24.5902 127.722 25.6136 129.942 27.6602C132.162 29.7069 133.273 32.5736 133.275 36.2602V38.2212L113.495 38.2242ZM127.216 34.2602C127.219 33.5359 127.051 32.821 126.726 32.1739C126.4 31.5268 125.927 30.9656 125.343 30.5362C123.874 29.5703 122.132 29.1043 120.376 29.2072C118.725 29.1582 117.106 29.6646 115.776 30.6452C115.186 31.061 114.691 31.599 114.326 32.2228C113.962 32.8465 113.736 33.5414 113.663 34.2602H127.216Z" fill="white"/>
<path d="M169.121 48.025V34.388C169.239 33.1111 168.874 31.8365 168.097 30.816C167.661 30.4206 167.147 30.1197 166.589 29.9323C166.03 29.7449 165.439 29.675 164.852 29.727C163.169 29.7384 161.558 30.4112 160.366 31.6C159.873 32.0638 159.474 32.6182 159.19 33.233C158.904 33.8393 158.755 34.5014 158.754 35.172V48.025H152.264V34.388C152.375 33.1186 152.01 31.8534 151.24 30.838C150.807 30.436 150.295 30.1294 149.736 29.9381C149.177 29.7467 148.584 29.6748 147.995 29.727C147.148 29.7206 146.309 29.8958 145.535 30.2408C144.762 30.5858 144.071 31.0926 143.509 31.727C142.996 32.2424 142.589 32.854 142.312 33.5268C142.036 34.1997 141.895 34.9205 141.897 35.648V48.018H135.408V25.288H141.767V28.947C142.742 27.5937 144.025 26.4924 145.51 25.7343C146.996 24.9762 148.641 24.5832 150.308 24.588C151.98 24.5349 153.635 24.9335 155.099 25.742C156.4 26.5042 157.411 27.676 157.974 29.074C159.075 27.6616 160.473 26.5089 162.069 25.698C163.674 24.9367 165.433 24.5568 167.208 24.588C168.345 24.5136 169.485 24.6744 170.556 25.0603C171.628 25.4462 172.609 26.049 173.437 26.831C174.205 27.7061 174.792 28.7241 175.166 29.8266C175.54 30.9291 175.693 32.0945 175.615 33.256V48.025H169.121Z" fill="white"/>
<path d="M195.962 48.0248V44.9318C194.731 46.1416 193.273 47.0962 191.672 47.7408C189.993 48.3629 188.213 48.6657 186.423 48.6338C183.432 48.6338 181.138 48.0312 179.541 46.8258C178.732 46.1545 178.094 45.3004 177.68 44.334C177.266 43.3676 177.088 42.3166 177.16 41.2677C177.233 40.2189 177.553 39.2023 178.096 38.3018C178.638 37.4014 179.387 36.6428 180.281 36.0888C182.372 34.8695 185.668 34.2028 190.169 34.0888L195.744 33.9578V33.0878C195.773 32.5206 195.661 31.955 195.418 31.4418C195.175 30.9286 194.808 30.4839 194.35 30.1478C193.17 29.3957 191.782 29.0372 190.386 29.1238C187.104 29.1238 185.145 30.0531 184.506 31.9118L178.626 31.3458C178.812 30.2721 179.24 29.2549 179.877 28.3713C180.515 27.4876 181.346 26.7608 182.306 26.2458C184.892 25.0135 187.745 24.4447 190.606 24.5908C198.184 24.5908 201.974 27.5818 201.975 33.5638V48.0248H195.962ZM195.744 37.7878L190.3 37.9188C188.537 37.8653 186.781 38.1691 185.138 38.8118C184.653 39.0029 184.238 39.3361 183.946 39.7677C183.655 40.1993 183.5 40.709 183.504 41.2298C183.49 41.6612 183.595 42.088 183.806 42.4642C184.018 42.8403 184.328 43.1514 184.704 43.3638C185.77 43.9197 186.967 44.1755 188.167 44.1038C189.301 44.1157 190.431 43.9618 191.521 43.6468C192.459 43.3829 193.333 42.9307 194.09 42.3178C194.609 41.9377 195.031 41.439 195.319 40.8633C195.607 40.2876 195.753 39.6515 195.746 39.0078L195.744 37.7878Z" fill="white"/>
<path d="M204.848 22.2371V16.6621H211.512V22.2371H204.848ZM204.935 48.0231V25.2861H211.425V48.0241L204.935 48.0231Z" fill="white"/>
<path d="M233.069 48.0243V34.5243C233.129 33.865 233.054 33.2002 232.847 32.5711C232.641 31.9419 232.308 31.3617 231.869 30.8663C230.788 30.019 229.426 29.614 228.058 29.7333C227.111 29.7365 226.174 29.9138 225.292 30.2563C224.409 30.5853 223.601 31.0891 222.918 31.7373C222.354 32.2255 221.9 32.8271 221.585 33.5027C221.27 34.1783 221.101 34.9129 221.089 35.6583V48.0283H214.599V25.2873H220.959V28.9463C222.088 27.548 223.524 26.4281 225.155 25.673C226.787 24.9179 228.57 24.5478 230.367 24.5913C233.329 24.5913 235.601 25.339 237.184 26.8343C238.008 27.679 238.645 28.6875 239.054 29.7944C239.463 30.9013 239.634 32.0818 239.558 33.2593V48.0243H233.069Z" fill="white"/>
<path d="M248.822 22.2371V16.6621H255.486V22.2371H248.822ZM248.909 48.0231V25.2861H255.399V48.0241L248.909 48.0231Z" fill="white"/>
<path d="M277.043 48.0241V34.5241C277.104 33.8647 277.029 33.1999 276.822 32.5708C276.616 31.9416 276.283 31.3615 275.843 30.8661C274.763 30.0188 273.4 29.6138 272.032 29.7331C271.086 29.7362 270.148 29.9134 269.266 30.2561C268.383 30.5852 267.576 31.0889 266.892 31.7371C266.329 32.2253 265.875 32.8268 265.559 33.5025C265.244 34.1781 265.075 34.9126 265.063 35.6581V48.0281H258.573V25.2871H264.932V28.9461C266.062 27.5478 267.498 26.4278 269.13 25.6727C270.761 24.9176 272.544 24.5475 274.341 24.5911C277.303 24.5911 279.576 25.3388 281.158 26.8341C281.982 27.6788 282.619 28.6873 283.028 29.7942C283.437 30.9011 283.609 32.0816 283.532 33.2591V48.0241H277.043Z" fill="white"/>
<path d="M28.4004 16.6577L42.4644 8.84766L56.4714 16.6577V40.2437H42.4494V24.5437L28.4004 16.6577Z" fill="url(#paint0_linear_3339_1272)"/>
<path d="M28.4024 63.8306L56.4724 48.1066V32.3826L28.4014 48.1066L28.4024 63.8306Z" fill="url(#paint1_linear_3339_1272)"/>
<path d="M28.4001 48.1085L14.3361 55.9185L0.328125 48.1085V24.5215H14.3511V40.2215L28.4001 48.1085Z" fill="url(#paint2_linear_3339_1272)"/>
<path d="M28.3981 0.935547L0.328125 16.6595V32.3845L28.3991 16.6595L28.3981 0.935547Z" fill="url(#paint3_linear_3339_1272)"/>
<defs>
<linearGradient id="paint0_linear_3339_1272" x1="42.4359" y1="40.2437" x2="42.4359" y2="8.84766" gradientUnits="userSpaceOnUse">
<stop stop-color="#989998"/>
<stop offset="1" stop-color="#C6C6C7"/>
</linearGradient>
<linearGradient id="paint1_linear_3339_1272" x1="56.4724" y1="48.1066" x2="28.4014" y2="48.1066" gradientUnits="userSpaceOnUse">
<stop stop-color="#CCCDCE"/>
<stop offset="1" stop-color="white"/>
</linearGradient>
<linearGradient id="paint2_linear_3339_1272" x1="14.3641" y1="24.5215" x2="14.3641" y2="55.9185" gradientUnits="userSpaceOnUse">
<stop stop-color="#939595"/>
<stop offset="1" stop-color="#C2C4C4"/>
</linearGradient>
<linearGradient id="paint3_linear_3339_1272" x1="0.328125" y1="16.66" x2="28.3991" y2="16.66" gradientUnits="userSpaceOnUse">
<stop stop-color="white"/>
<stop offset="1" stop-color="#CACACA"/>
</linearGradient>
</defs>
</svg>
